<?xml version="1.0" encoding="utf-8"?>
<!-- Generator: Adobe Illustrator 19.0.0, SVG Export Plug-In . SVG Version: 6.00 Build 0)  -->
<svg version="1.1" id="Layer_1" xmlns="http://www.w3.org/2000/svg" xmlns:xlink="http://www.w3.org/1999/xlink" x="0px" y="0px"
	 width="961px" height="449px" viewBox="0 0 961 449" style="enable-background:new 0 0 961 449;" xml:space="preserve">
<style type="text/css">
	.st0{fill:#005CB9;}
	.st1{fill:#005CB9;stroke:#005CB9;stroke-width:5;stroke-miterlimit:10;}
	.st2{fill:#FFDB00;}
	.st3{fill-rule:evenodd;clip-rule:evenodd;fill:#AAB2BC;}
	.st4{clip-path:url(#XMLID_2_);fill:url(#XMLID_3_);}
	.st5{clip-path:url(#XMLID_4_);}
	.st6{fill-rule:evenodd;clip-rule:evenodd;fill:url(#XMLID_5_);}
	.st7{font-family:'Humanist777BT-RomanB';}
	.st8{font-size:34.4511px;}
</style>
<g id="XMLID_462_">
	<path id="XMLID_601_" class="st0" d="M900.2,338.7c0-0.8-0.3-1.5-0.9-2.1c-0.6-0.6-1.3-0.9-2.1-0.9h-20.6v-16.2h17.9
		c0.8,0,1.4-0.3,2-0.9c0.5-0.6,0.8-1.2,0.8-2c0-0.8-0.3-1.5-0.8-2c-0.5-0.6-1.2-0.9-2-0.9h-17.9v-16.2h19.6c0.8,0,1.5-0.3,2.1-0.9
		c0.6-0.6,0.9-1.3,0.9-2.1c0-0.8-0.3-1.5-0.9-2.1c-0.6-0.6-1.3-0.9-2.1-0.9h-22.8c-0.8,0-1.5,0.3-2.1,0.9c-0.6,0.6-0.9,1.3-0.9,2.1
		v44.1c0,0.8,0.3,1.5,0.9,2.1c0.6,0.6,1.3,0.9,2.1,0.9h23.9c0.8,0,1.5-0.3,2.1-0.9C899.9,340.2,900.2,339.5,900.2,338.7
		 M864.2,338.7c0-0.8-0.3-1.5-0.9-2.1c-0.6-0.6-1.3-0.9-2.1-0.9h-20.5v-41.6c0-0.8-0.3-1.5-0.9-2.2c-0.6-0.6-1.3-0.9-2.2-0.9
		c-0.9,0-1.6,0.3-2.2,0.9c-0.6,0.6-0.9,1.3-0.9,2.2v44.6c0,0.8,0.3,1.5,0.9,2.1c0.6,0.6,1.3,0.9,2.1,0.9h23.7c0.8,0,1.5-0.3,2.1-0.9
		C863.9,340.2,864.2,339.5,864.2,338.7z M818.2,323.7c0,8.6-3.7,12.9-11,12.9c-7.3,0-11-4.3-11-12.9v-14.2c0-8.5,3.7-12.8,11-12.8
		c7.3,0,11,4.3,11,12.8V323.7z M824.3,323.7v-14.2c0-5.3-1.2-9.5-3.7-12.8c-3-3.8-7.4-5.8-13.4-5.8c-6,0-10.4,1.9-13.4,5.8
		c-2.5,3.2-3.8,7.4-3.8,12.8v14.2c0,5.3,1.3,9.6,3.8,12.8c2.9,3.8,7.4,5.8,13.4,5.8c5.9,0,10.4-1.9,13.4-5.8
		C823,333.3,824.3,329,824.3,323.7z M779.8,293.9c0-0.8-0.3-1.5-0.8-2.1c-0.5-0.5-1.3-0.8-2.1-0.8c-1.4,0-2.3,0.6-2.9,1.7L758.6,325
		l-15.3-32.1c-0.6-1.2-1.6-1.9-3-1.9c-0.9,0-1.6,0.3-2.1,0.8c-0.5,0.5-0.8,1.2-0.8,2.1v45.5c0,0.8,0.3,1.4,0.8,2
		c0.5,0.5,1.2,0.8,2,0.8c0.8,0,1.5-0.3,2-0.8c0.6-0.5,0.9-1.2,0.9-2v-34.6l12.7,26.9c0.5,1.2,1.5,1.8,2.8,1.8c1.3,0,2.3-0.6,2.8-1.8
		l12.7-27v34.6c0,0.8,0.3,1.5,0.9,2c0.6,0.6,1.2,0.9,2,0.9c0.8,0,1.5-0.3,2-0.9c0.6-0.6,0.9-1.2,0.9-2V293.9z M720.4,324.3h-16.5
		c2.4-7.6,5.1-15.4,8.2-23.4c1.6,4,3.1,8,4.4,11.8C717.9,316.7,719.2,320.5,720.4,324.3z M730.6,338.5c-1.9-7.6-4.1-15-6.5-22.3
		c-2.4-7.3-5.1-14.5-8-21.8c-0.9-2.2-2.2-3.4-4-3.4c-1.7,0-3,1.1-3.9,3.4c-3.1,7.5-5.8,15-8.2,22.3c-2.4,7.3-4.5,14.6-6.2,21.8
		c-0.1,0.4-0.1,0.6-0.1,0.8c0,0.9,0.3,1.6,1,2.1c0.6,0.5,1.3,0.8,2.1,0.8c1.5,0,2.5-0.8,2.9-2.4c1.1-4.4,2-7.7,2.7-9.9h19.6
		c0.6,2.1,1.1,3.9,1.6,5.5c0.5,1.6,0.8,3.1,1.2,4.4c0.4,1.6,1.4,2.4,2.9,2.4c0.8,0,1.6-0.3,2.2-0.8c0.6-0.5,1-1.2,1-2.1
		c0-0.1,0-0.3,0-0.4C730.7,338.8,730.7,338.7,730.6,338.5z"/>
	<g id="XMLID_598_">
		<path id="XMLID_599_" class="st1" d="M530.5,140.3v31.2H558c-3.3,5-6.4,9.8-9.3,14.5c-2.9,4.7-5.6,9.4-8.2,14h30l17.6,72.2h-15.4
			l-14.3-58.7h-24.7c-4.7,9.9-8.6,19.6-11.5,29.1c-3,9.6-5.1,19.4-6.3,29.5h-15.4c2.3-15.8,6.2-30.9,11.9-45.4
			c5.6-14.4,12.7-28.3,21.2-41.7h-18.3v-44.8H530.5z"/>
	</g>
	<g id="XMLID_593_">
		<path id="XMLID_594_" class="st1" d="M654.1,272.2v-57h-52.6c-0.5-3.7-0.9-7.1-1.1-10.4c-0.2-3.2-0.4-6.3-0.4-9.3
			c0-7.7,0.8-14.3,2.3-19.8c1.5-5.5,3.6-10.2,6.3-14.1c2.7-3.8,5.8-6.9,9.5-9.3c3.6-2.4,7.6-4.2,12-5.5c4.3-1.3,8.9-2.1,13.7-2.6
			c4.8-0.4,9.7-0.6,14.6-0.6h48.3c4.8,0,9.6,0.2,14.2,0.6c4.6,0.4,8.9,1.2,13.1,2.3c4.1,1.2,7.9,2.8,11.4,5.1
			c3.5,2.2,6.4,5.1,8.9,8.7c2.5,3.6,4.4,8,5.8,13.2c1.4,5.2,2.1,11.4,2.1,18.7c0,2.8-0.1,5.6-0.4,8.6c-0.2,2.9-0.6,6.1-1.1,9.6
			h-65.1v-52.8h-26.5v114.7H654.1z M654.1,201.5v-44c-5.3,0.1-10.2,0.6-14.9,1.3c-4.7,0.8-8.7,2.4-12.2,4.8c-3.5,2.5-6.2,6-8.2,10.6
			c-2,4.6-3,10.8-3,18.6c0,1.3,0,2.7,0.1,4.2c0.1,1.4,0.2,2.9,0.4,4.5H654.1z M746.4,196.5c0.1-2.5,0.2-5,0.2-7.5
			c0-6.9-0.9-12.3-2.8-16.5c-1.9-4.1-4.4-7.3-7.6-9.5c-3.2-2.2-7-3.7-11.3-4.4c-4.3-0.7-8.9-1.1-13.8-1.2v39.1H746.4z"/>
	</g>
	<g id="XMLID_589_">
		<path id="XMLID_590_" class="st1" d="M814.3,135.1H830l28,93.8h16.6c9.4,0,16.4,1.8,20.8,5.3c4.4,3.5,6.6,8.8,6.6,15.9
			c0,7.4-2.3,13-6.9,16.6c-4.6,3.7-11.8,5.5-21.6,5.5h-18.1l-26.5-88.4c-6.9,3.2-12.8,7.4-17.5,12.8c-4.8,5.3-8.6,11.7-11.5,19.1
			c-2.9,7.4-5,15.8-6.3,25.2c-1.3,9.4-1.9,19.9-1.9,31.3h-15.4c0-14.7,1.1-27.6,3.2-38.7c2.1-11.1,5.2-20.7,9.3-28.9
			c4.1-8.2,9.2-15,15.3-20.5c6.1-5.5,13.1-9.9,21-13.4L814.3,135.1z M875,258.9c4.4,0,7.5-0.7,9.3-2.1c1.8-1.4,2.7-3.5,2.7-6.3
			c0-2.9-1-5.1-2.9-6.4c-2-1.3-5.2-2-9.8-2h-12.3l5.1,16.8H875z"/>
	</g>
	<path id="XMLID_445_" class="st2" d="M236.1,216.2c-30.1,25.6-76.6,76.7-83.9,174.5l-36.5-3.1c8.4-113.9,62.8-173.1,97.5-202.4
		c27.8-23.5,25.6-20.9,54.6,8.9c80.4,82.7,94.7,194.6,94.7,195l-36.2,5.6C326.4,394.4,313,289.4,236.1,216.2"/>
	<g id="XMLID_586_">
		<path id="XMLID_444_" class="st3" d="M407,176.7C398.4,79.6,188.1-5.4,28.1,131.9c159-87.7,331-30.4,378.9,46.1L407,176.7z"/>
	</g>
	<g id="XMLID_584_">
		<path id="XMLID_443_" class="st3" d="M417.3,241.9C407.3,143.6,196.7,57.7,38.5,197c159-87.7,331-30.4,378.9,46.1L417.3,241.9z"/>
	</g>
	<g id="XMLID_580_">
		<defs>
			<path id="XMLID_438_" d="M407,178c37.6,57.3,3.6,126.1-177.3,148.1l0.9-34.4C372.9,271.6,411.5,223.7,407,178"/>
		</defs>
		<clipPath id="XMLID_2_">
			<use xlink:href="#XMLID_438_"  style="overflow:visible;"/>
		</clipPath>
		<linearGradient id="XMLID_3_" gradientUnits="userSpaceOnUse" x1="241.7467" y1="250.5592" x2="420.6489" y2="253.3546">
			<stop  offset="0" style="stop-color:#005CB9"/>
			<stop  offset="1" style="stop-color:#80A9DC"/>
		</linearGradient>
		<rect id="XMLID_440_" x="229.8" y="178" class="st4" width="214.8" height="148.1"/>
	</g>
	<g id="XMLID_464_">
		<defs>
			<path id="XMLID_331_" d="M417.4,240.2c38.3,58.5,3.2,122.8-187.5,143.1l0-32.7C380.5,331.5,422,285.8,417.3,239L417.4,240.2z"/>
		</defs>
		<clipPath id="XMLID_4_">
			<use xlink:href="#XMLID_331_"  style="overflow:visible;"/>
		</clipPath>
		<g id="XMLID_466_" class="st5">
			<g id="XMLID_467_">
				<linearGradient id="XMLID_5_" gradientUnits="userSpaceOnUse" x1="229.826" y1="311.1844" x2="504.0061" y2="311.1844">
					<stop  offset="0" style="stop-color:#005CB9"/>
					<stop  offset="1" style="stop-color:#80A9DC"/>
				</linearGradient>
				<polygon id="XMLID_437_" class="st6" points="504,239 455.3,383.4 229.8,383.4 229.8,239 				"/>
			</g>
		</g>
	</g>
	<path id="XMLID_330_" class="st2" d="M177.9,54.8c40.1,56.5,55.1,96.2,137.4,102.1l-0.1,23.9c-89.3-12.3-129.6-30.3-178.2-98.8
		L177.9,54.8z"/>
</g>
<g id="XMLID_271_">
	<text id="XMLID_273_" transform="matrix(1 0 0 1 477.7977 394.7625)" class="st0 st7 st8">P</text>
	<text id="XMLID_272_" transform="matrix(1 0 0 1 495.2899 394.7625)" class="st0 st7 st8">owered by DASHEN BANK</text>
</g>
</svg>
