<?xml version="1.0" encoding="UTF-8"?>
<svg width="174px" height="174px" viewBox="0 0 174 174" version="1.1" xmlns="http://www.w3.org/2000/svg" xmlns:xlink="http://www.w3.org/1999/xlink">
    <!-- Generator: Sketch 51.3 (57544) - http://www.bohemiancoding.com/sketch -->
    <title>solve-it-vector</title>
    <desc>Created with Sketch.</desc>
    <defs></defs>
    <g id="Page-1" stroke="none" stroke-width="1" fill="none" fill-rule="evenodd">
        <g id="solve-it-vector">
            <rect id="Rectangle" fill="#F8F8F8" fill-rule="nonzero" x="0" y="0" width="174" height="174"></rect>
            <path d="M91.912,103.944 L89.944,101.112 C89.3039968,102.104005 88.3680062,102.943997 87.136,103.632 C85.9039938,104.320003 84.4080088,104.664 82.648,104.664 C79.6719851,104.664 77.3200086,103.784009 75.592,102.024 C73.8639914,100.263991 73,97.7360165 73,94.44 C73,92.1359885 73.5279947,90.2080078 74.584,88.656 C75.6400053,87.1039922 76.9839918,85.8960043 78.616,85.032 C77.8479962,84.0079949 77.2480022,82.9120058 76.816,81.744 C76.3839978,80.5759942 76.168,79.3040069 76.168,77.928 C76.168,76.5519931 76.3999977,75.3120055 76.864,74.208 C77.3280023,73.1039945 77.9679959,72.1680038 78.784,71.4 C79.6000041,70.6319962 80.5599945,70.0400021 81.664,69.624 C82.7680055,69.2079979 83.9599936,69 85.24,69 C86.4560061,69 87.5759949,69.1839982 88.6,69.552 C89.6240051,69.9200018 90.5119962,70.4639964 91.264,71.184 C92.0160038,71.9040036 92.5999979,72.7839948 93.016,73.824 C93.4320021,74.8640052 93.64,76.0559933 93.64,77.4 C93.64,78.4880054 93.4720017,79.4719956 93.136,80.352 C92.7999983,81.2320044 92.3440029,82.0399963 91.768,82.776 C91.1919971,83.5120037 90.5280038,84.175997 89.776,84.768 C89.0239962,85.360003 88.248004,85.9119974 87.448,86.424 L90.28,90.36 L92.632,85.32 L99.88,85.32 L94.408,95.544 L100.456,103.944 L91.912,103.944 Z M87.4,77.832 C87.4,76.9039954 87.2240018,76.1280031 86.872,75.504 C86.5199982,74.8799969 85.9920035,74.568 85.288,74.568 C84.5519963,74.568 83.9760021,74.9039966 83.56,75.576 C83.1439979,76.2480034 82.936,77.0319955 82.936,77.928 C82.936,79.528008 83.4799946,80.9999933 84.568,82.344 C85.3040037,81.8639976 85.9599971,81.2480038 86.536,80.496 C87.1120029,79.7439962 87.4,78.8560051 87.4,77.832 Z M81.928,89.784 C81.4799978,90.0400013 81.0320022,90.5279964 80.584,91.248 C80.1359978,91.9680036 79.912,92.8719946 79.912,93.96 C79.912,95.3040067 80.215997,96.3679961 80.824,97.152 C81.432003,97.9360039 82.2479949,98.328 83.272,98.328 C84.1040042,98.328 84.7599976,98.0800025 85.24,97.584 C85.7200024,97.0879975 86.0719989,96.5840026 86.296,96.072 L81.928,89.784 Z" id="&amp;" fill="#5A71E3"></path>
        </g>
    </g>
</svg>
