<?xml version="1.0" encoding="UTF-8"?>
<svg width="174px" height="174px" viewBox="0 0 174 174" version="1.1" xmlns="http://www.w3.org/2000/svg" xmlns:xlink="http://www.w3.org/1999/xlink">
    <!-- Generator: Sketch 51.3 (57544) - http://www.bohemiancoding.com/sketch -->
    <title>solve-it-vector copy</title>
    <desc>Created with Sketch.</desc>
    <defs></defs>
    <g id="Page-1" stroke="none" stroke-width="1" fill="none" fill-rule="evenodd">
        <g id="solve-it-vector-copy">
            <rect id="Rectangle" fill="#F8F8F8" fill-rule="nonzero" x="0" y="0" width="174" height="174"></rect>
            <path d="M98.608,100.2 C97.6799954,101.512007 96.4640075,102.607996 94.96,103.488 C93.4559925,104.368004 91.5360117,104.808 89.2,104.808 C87.2159901,104.808 85.4160081,104.368004 83.8,103.488 C82.1839919,102.607996 80.8000058,101.376008 79.648,99.792 C78.4959942,98.2079921 77.6000032,96.320011 76.96,94.128 C76.3199968,91.935989 76,89.5280131 76,86.904 C76,84.2479867 76.3199968,81.816011 76.96,79.608 C77.6000032,77.399989 78.4959942,75.5120078 79.648,73.944 C80.8000058,72.3759922 82.1839919,71.1600043 83.8,70.296 C85.4160081,69.4319957 87.2159901,69 89.2,69 C91.4720114,69 93.3679924,69.4079959 94.888,70.224 C96.4080076,71.0400041 97.6319954,72.0559939 98.56,73.272 L94.432,78.84 C93.8559971,78.0719962 93.2080036,77.4640022 92.488,77.016 C91.7679964,76.5679978 90.8640054,76.344 89.776,76.344 C88.7519949,76.344 87.8640038,76.6159973 87.112,77.16 C86.3599962,77.7040027 85.7200026,78.4479953 85.192,79.392 C84.6639974,80.3360047 84.2720013,81.4559935 84.016,82.752 C83.7599987,84.0480065 83.632,85.4319926 83.632,86.904 C83.632,88.3760074 83.7599987,89.7519936 84.016,91.032 C84.2720013,92.3120064 84.6639974,93.4319952 85.192,94.392 C85.7200026,95.3520048 86.3679962,96.1039973 87.136,96.648 C87.9040038,97.1920027 88.7999949,97.464 89.824,97.464 C90.8480051,97.464 91.7439962,97.2080026 92.512,96.696 C93.2800038,96.1839974 93.8879978,95.5760035 94.336,94.872 L98.608,100.2 Z" id="C" fill="#5A71E3"></path>
        </g>
    </g>
</svg>
