<?xml version="1.0" encoding="UTF-8"?>
<svg width="174px" height="174px" viewBox="0 0 174 174" version="1.1" xmlns="http://www.w3.org/2000/svg" xmlns:xlink="http://www.w3.org/1999/xlink">
    <!-- Generator: Sketch 51.3 (57544) - http://www.bohemiancoding.com/sketch -->
    <title>solve-it-vector</title>
    <desc>Created with Sketch.</desc>
    <defs></defs>
    <g id="Page-1" stroke="none" stroke-width="1" fill="none" fill-rule="evenodd">
        <g id="solve-it-vector">
            <rect id="Rectangle" fill="#F8F8F8" fill-rule="nonzero" x="0" y="0" width="174" height="174"></rect>
            <g id="Group" transform="translate(24.000000, 71.000000)">
                <path d="M9.29557753,32.2007273 C8.29247047,32.2007273 7.33813988,32.11091 6.43255712,31.9312727 C5.52697436,31.7516355 4.69106436,31.5098197 3.92480202,31.2058182 C3.15853969,30.9018167 2.4549821,30.5563656 1.81410814,30.1694545 C1.17323419,29.7825435 0.629892685,29.3956383 0.184067327,29.0087273 L4.53084284,22.1687273 C5.17171679,22.6938208 5.87527438,23.1221802 6.64153671,23.4538182 C7.40779905,23.7854562 8.16708397,23.9512727 8.91941427,23.9512727 C9.39310371,23.9512727 9.79016096,23.8338194 10.1105979,23.5989091 C10.4310349,23.3639988 10.591251,23.0254568 10.591251,22.5832727 C10.591251,22.0581792 10.3613757,21.6160018 9.90161835,21.2567273 C9.44186095,20.8974527 8.72437152,20.4829114 7.74912855,20.0130909 C6.913206,19.6261799 6.1190915,19.1909115 5.3667612,18.7072727 C4.61443091,18.2236339 3.94570291,17.6363671 3.36055712,16.9454545 C2.77541134,16.254542 2.30869492,15.4461864 1.96039386,14.5203636 C1.6120928,13.5945408 1.43794488,12.5098244 1.43794488,11.2661818 C1.43794488,9.4698092 1.75837705,7.94291538 2.399251,6.68545455 C3.04012495,5.42799371 3.85513721,4.40545848 4.84431222,3.61781818 C5.83348724,2.83017788 6.93410208,2.25672907 8.14618978,1.89745455 C9.35827747,1.53818002 10.5494492,1.35854545 11.7197408,1.35854545 C13.5030422,1.35854545 15.0982372,1.63490633 16.5053734,2.18763636 C17.9125097,2.7403664 19.0897497,3.45890467 20.0371286,4.34327273 L15.5649653,11.1003636 C15.0912758,10.6305431 14.5340025,10.2367289 13.8931286,9.91890909 C13.2522546,9.60108932 12.6392539,9.44218182 12.0541081,9.44218182 C11.6082828,9.44218182 11.2042596,9.55272617 10.8420265,9.77381818 C10.4797934,9.9949102 10.2986796,10.3818154 10.2986796,10.9345455 C10.2986796,11.3767295 10.4867593,11.7359986 10.8629245,12.0123636 C11.2390896,12.2887287 11.9705109,12.6894519 13.0572102,13.2145455 C13.6702201,13.518547 14.3528799,13.8985432 15.1052102,14.3545455 C15.8575405,14.8105477 16.568064,15.3909056 17.236802,16.0956364 C17.9055401,16.8003672 18.4697793,17.6501768 18.9295367,18.6450909 C19.3892941,19.640005 19.6191694,20.8145387 19.6191694,22.1687273 C19.6191694,23.9374634 19.3266009,25.4574482 18.7414551,26.7287273 C18.1563093,28.0000064 17.3761266,29.0363596 16.4008837,29.8378182 C15.4256407,30.6392767 14.3180599,31.2334526 13.0781081,31.6203636 C11.8381564,32.0072747 10.5773254,32.2007273 9.29557753,32.2007273 Z M31.350103,32.2836364 C29.7897142,32.2836364 28.389565,31.9865484 27.1496132,31.3923636 C25.9096614,30.7981788 24.8508421,29.9690962 23.9731234,28.9050909 C23.0954047,27.8410856 22.4266767,26.5767346 21.9669193,25.112 C21.5071619,23.6472654 21.2772867,22.0581904 21.2772867,20.3447273 C21.2772867,18.6036277 21.5071619,17.0007346 21.9669193,15.536 C22.4266767,14.0712654 23.0954047,12.8069144 23.9731234,11.7429091 C24.8508421,10.6789038 25.9096614,9.84982115 27.1496132,9.25563636 C28.389565,8.66145157 29.7897142,8.36436364 31.350103,8.36436364 C32.9383558,8.36436364 34.3524369,8.66145157 35.5923887,9.25563636 C36.8323405,9.84982115 37.8841939,10.6789038 38.7479805,11.7429091 C39.6117672,12.8069144 40.2735293,14.0712654 40.7332867,15.536 C41.1930441,17.0007346 41.4229193,18.6036277 41.4229193,20.3447273 C41.4229193,22.0581904 41.1930441,23.6472654 40.7332867,25.112 C40.2735293,26.5767346 39.6117672,27.8410856 38.7479805,28.9050909 C37.8841939,29.9690962 36.8323405,30.7981788 35.5923887,31.3923636 C34.3524369,31.9865484 32.9383558,32.2836364 31.350103,32.2836364 Z M31.350103,15.8261818 C30.6813649,15.8261818 30.1867849,16.2614502 29.8663479,17.132 C29.5459109,18.0025498 29.3856948,19.0596301 29.3856948,20.3032727 C29.3856948,20.9112758 29.4274903,21.4847246 29.5110826,22.0236364 C29.5946748,22.5625481 29.7130954,23.0392707 29.8663479,23.4538182 C30.0196003,23.8683657 30.2216119,24.1930897 30.4723887,24.428 C30.7231655,24.6629103 31.015734,24.7803636 31.350103,24.7803636 C31.7123361,24.7803636 32.0258023,24.6629103 32.2905111,24.428 C32.55522,24.1930897 32.7711634,23.8683657 32.9383479,23.4538182 C33.1055324,23.0392707 33.223953,22.5625481 33.2936132,22.0236364 C33.3632734,21.4847246 33.398103,20.9112758 33.398103,20.3032727 C33.398103,19.0596301 33.2378869,18.0025498 32.9174499,17.132 C32.5970129,16.2614502 32.0745692,15.8261818 31.350103,15.8261818 Z M44.5020978,0.114909091 L53.2792407,0.114909091 L53.2792407,31.4545455 L44.5020978,31.4545455 L44.5020978,0.114909091 Z M55.2717253,9.19345455 L64.2578478,9.19345455 L66.4730314,22.5418182 L66.6402151,22.5418182 L68.730011,9.19345455 L77.3399702,9.19345455 L71.4885416,31.4545455 L60.9559702,31.4545455 L55.2717253,9.19345455 Z M96.9703324,26.6043636 C96.1065458,28.4283728 94.9571695,29.8309042 93.5221691,30.812 C92.0871688,31.7930958 90.2969282,32.2836364 88.1513936,32.2836364 C86.8139175,32.2836364 85.5391548,32.0349116 84.3270671,31.5374545 C83.1149794,31.0399975 82.0491941,30.2938232 81.1296793,29.2989091 C80.2101645,28.303995 79.4857092,27.0672801 78.9562916,25.5887273 C78.426874,24.1101744 78.1621691,22.3760099 78.1621691,20.3861818 C78.1621691,18.5345362 78.4059762,16.8625529 78.8935977,15.3701818 C79.3812192,13.8778107 80.0569131,12.6134597 80.9206997,11.5770909 C81.7844864,10.5407221 82.8084761,9.74618458 83.9926997,9.19345455 C85.1769233,8.64072451 86.4795498,8.36436364 87.9006181,8.36436364 C89.5445991,8.36436364 90.9517143,8.66145157 92.1220059,9.25563636 C93.2922974,9.84982115 94.2535939,10.6858128 95.0059242,11.7636364 C95.7582545,12.8414599 96.3085619,14.126538 96.656863,15.6189091 C97.0051641,17.1112802 97.179312,18.7418093 97.179312,20.5105455 L97.179312,22.4174545 L86.3123732,22.4174545 C86.3402373,23.1360036 86.5631466,23.7439975 86.9811079,24.2414545 C87.3990692,24.7389116 87.8866833,24.9876364 88.443965,24.9876364 C89.0569749,24.9876364 89.5445891,24.7941838 89.9068222,24.4072727 C90.2690553,24.0203617 90.547692,23.5505482 90.7427406,22.9978182 L96.9703324,26.6043636 Z M89.5724548,17.4429091 C89.5724548,16.6414505 89.4540343,15.9850935 89.2171895,15.4738182 C88.9803448,14.9625429 88.5832876,14.7069091 88.0260059,14.7069091 C87.4965882,14.7069091 87.0716673,14.9763609 86.7512304,15.5152727 C86.4307934,16.0541845 86.2566455,16.6967235 86.2287814,17.4429091 L89.5724548,17.4429091 Z" id="Solve" fill="#5E5E5E"></path>
                <path d="M104.4861,31.4545455 L104.4861,2.10472727 L111.215243,2.10472727 L111.215243,31.4545455 L104.4861,31.4545455 Z M126.666014,31.2887273 C126.303781,31.4821828 125.788303,31.6479993 125.119565,31.7861818 C124.450827,31.9243643 123.782099,31.9934545 123.113361,31.9934545 C120.912098,31.9934545 119.309937,31.4061877 118.30683,30.2316364 C117.303723,29.057085 116.802177,27.2952845 116.802177,24.9461818 L116.802177,14.8312727 L114.169034,14.8312727 L114.169034,9.77381818 L116.760381,9.77381818 L116.760381,4.55054545 L123.113361,4.55054545 L123.113361,9.77381818 L126.874993,9.77381818 L126.874993,14.8312727 L123.113361,14.8312727 L123.113361,23.4538182 C123.113361,24.5040053 123.280543,25.2709067 123.614912,25.7545455 C123.949281,26.2381842 124.47869,26.48 125.203156,26.48 C125.788302,26.48 126.275916,26.3832737 126.666014,26.1898182 L126.666014,31.2887273 Z" id="It" fill="#FACE1E"></path>
            </g>
        </g>
    </g>
</svg>